<svg width="21" height="8" viewBox="0 0 21 8" fill="none" xmlns="http://www.w3.org/2000/svg">
<path fill-rule="evenodd" clip-rule="evenodd" d="M2 0H16C17.1046 0 18 0.89543 18 2V5.71428C18 6.81885 17.1046 7.71429 16 7.71429H2C0.895431 7.71429 0 6.81886 0 5.71429V2C0 0.895433 0.895429 0 2 0ZM2 1C1.44772 1 1 1.44772 1 2V5.71429C1 6.26657 1.44772 6.71429 2 6.71429H16C16.5523 6.71429 17 6.26657 17 5.71428V2C17 1.44772 16.5523 1 16 1H2ZM19.2857 2.54286C19.2857 2.32194 19.4648 2.14286 19.6857 2.14286C19.9066 2.14286 20.0857 2.32194 20.0857 2.54286V5.17143C20.0857 5.39234 19.9066 5.57143 19.6857 5.57143C19.4648 5.57143 19.2857 5.39234 19.2857 5.17143V2.54286ZM3.14286 2.14286C2.59057 2.14286 2.14286 2.59057 2.14286 3.14286V4.57143C2.14286 5.12371 2.59057 5.57143 3.14286 5.57143H9.14286C9.69514 5.57143 10.1429 5.12371 10.1429 4.57143V3.14286C10.1429 2.59057 9.69514 2.14286 9.14286 2.14286H3.14286Z" fill="white"/>
</svg>
