<svg width="14" height="12" viewBox="0 0 14 12" fill="none" xmlns="http://www.w3.org/2000/svg">
<g clip-path="url(#clip0)">
<path d="M9.44096 7.09788L12.0944 4.62314C13.9855 2.86906 14.0734 1.25095 13.9708 0.462298C13.9561 0.407908 13.9268 0.353518 13.8828 0.312725C13.7656 0.203945 13.5897 0.203945 13.4724 0.312725L12.6954 1.03339L2.94672 10.0893C2.62421 10.3885 2.62421 10.8916 2.94672 11.1907C3.26923 11.4899 3.81164 11.4899 4.13415 11.1907L4.33939 10.946C4.70588 10.4973 6.58232 7.98172 6.86086 7.58739C6.97813 7.42422 7.09541 7.32904 7.18337 7.28825C7.32997 7.23386 7.44724 7.30185 7.44724 7.30185C8.09227 7.65538 8.91321 7.58739 9.44096 7.09788Z" fill="white"/>
<path d="M4.95508 6.20047C5.49749 5.9965 5.86398 6.17327 6.09854 6.36364L6.86084 5.65657C6.65561 5.43901 6.46503 5.08547 6.68493 4.59596C6.99278 3.90249 7.242 3.45377 6.17184 2.37957C5.131 1.29176 3.4598 0.285548 2.68283 0.0679876C2.50692 0.027195 2.331 0 2.19906 0C2.1844 0 2.1844 0 2.16974 0C2.12577 0 2.09645 0.0135975 2.06713 0.0407925C1.99383 0.10878 1.99383 0.21756 2.06713 0.27195L4.70587 2.7195C4.83781 2.84188 4.83781 3.04584 4.70587 3.18182C4.57393 3.3042 4.35404 3.3042 4.20744 3.18182L3.89959 2.89627L3.21058 2.25719C2.69749 1.78127 2.36032 1.46853 2.03781 1.22378C1.26084 0.625486 0.95299 0.611888 0.95299 0.611888C0.95299 0.611888 0.835713 0.598291 0.733095 0.679876C0.645137 0.775058 0.659797 0.883838 0.659797 0.883838C0.659797 0.883838 0.674456 1.16939 1.33414 1.90365C1.59802 2.2028 1.93519 2.51554 2.44828 2.99145L3.13728 3.63054L3.44514 3.91608C3.57707 4.03846 3.57707 4.24242 3.44514 4.3784C3.3132 4.50078 3.0933 4.50078 2.94671 4.3784L0.307964 1.93085C0.234666 1.86286 0.117388 1.86286 0.0587496 1.93085C0.0294302 1.95804 0.0147705 1.98524 0.0147705 2.02603C0.0147705 2.02603 0.0147705 2.03963 0.0147705 2.05322C0.0147705 2.1756 0.0440899 2.33877 0.0880689 2.50194C0.307964 3.22261 1.40744 4.75913 2.58022 5.75175C3.73833 6.71717 4.20744 6.48601 4.95508 6.20047Z" fill="white"/>
<path d="M9.51434 7.737C9.1625 7.95456 8.73737 8.07694 8.29758 8.07694C8.03371 8.07694 7.78449 8.03614 7.53528 7.95456L10.6138 11.3539C11.0683 11.7619 11.7866 11.7619 12.2264 11.3539C12.6662 10.946 12.6662 10.2661 12.2264 9.85821L9.51434 7.737Z" fill="white"/>
</g>
<defs>
<clipPath id="clip0">
<rect width="14" height="11.6667" fill="white"/>
</clipPath>
</defs>
</svg>
