<svg width="11" height="10" viewBox="0 0 11 10" fill="none" xmlns="http://www.w3.org/2000/svg">
<path d="M11 1.76056L8.30746 0.0352113H6.63284C6.63284 0.387324 6.50149 0.669014 6.30448 0.915493C6.20597 1.02113 6.07463 1.12676 5.94328 1.16197C5.87761 1.19718 5.81194 1.23239 5.71343 1.23239C5.64776 1.23239 5.54925 1.26761 5.48358 1.26761C5.41791 1.26761 5.3194 1.26761 5.25373 1.23239C5.18806 1.23239 5.12239 1.19718 5.02388 1.16197C4.76119 1.02113 4.53134 0.809859 4.4 0.492958C4.33433 0.352113 4.30149 0.176056 4.30149 0H2.69254L0 1.72535L1.34627 3.90845L2.56119 3.34507L2.33134 8.90845C2.33134 9.08451 3.77612 10 5.51642 10C7.28955 10 8.63582 9.11972 8.63582 8.90845L8.40597 3.34507L9.6209 3.90845L11 1.76056Z" fill="white"/>
</svg>
