<svg width="14" height="10" viewBox="0 0 14 10" fill="none" xmlns="http://www.w3.org/2000/svg">
<path fill-rule="evenodd" clip-rule="evenodd" d="M12.25 0C11.6977 0 11.25 0.447715 11.25 1V9C11.25 9.55229 11.6977 10 12.25 10H12.75C13.3023 10 13.75 9.55228 13.75 9V1C13.75 0.447715 13.3023 0 12.75 0H12.25ZM8.5 2.5C7.94772 2.5 7.5 2.94772 7.5 3.5V9C7.5 9.55228 7.94772 10 8.5 10H9C9.55229 10 10 9.55229 10 9V3.5C10 2.94772 9.55229 2.5 9 2.5H8.5ZM3.75 6C3.75 5.44772 4.19772 5 4.75 5H5.25C5.80228 5 6.25 5.44772 6.25 6V9C6.25 9.55229 5.80228 10 5.25 10H4.75C4.19772 10 3.75 9.55229 3.75 9V6ZM1 7.5C0.447715 7.5 0 7.94772 0 8.5V9C0 9.55229 0.447715 10 1 10H1.5C2.05228 10 2.5 9.55229 2.5 9V8.5C2.5 7.94772 2.05228 7.5 1.5 7.5H1Z" fill="white"/>
</svg>
