<svg width="8" height="12" viewBox="0 0 8 12" fill="none" xmlns="http://www.w3.org/2000/svg">
<path d="M3.74196 0.100677C3.72525 0.0356591 3.65843 -0.013104 3.57491 0.00315034C3.52479 0.0194047 3.49138 0.0519134 3.47467 0.100677C2.9067 4.55437 0 5.46462 0 8.5692C0.0501155 10.5035 1.68722 12.0476 3.67514 11.9989C5.61294 11.9664 7.16652 10.4385 7.19993 8.5692C7.21663 5.48087 4.30993 4.55437 3.74196 0.100677ZM3.19069 5.02575C3.15728 5.15579 3.10716 5.30207 3.07375 5.44836C2.82317 6.34235 2.52248 7.35013 2.52248 8.52044C2.52248 9.15436 2.13826 9.38192 1.77075 9.38192C1.35312 9.38192 1.01902 9.05683 1.01902 8.65048C1.01902 7.26885 1.70393 6.35861 2.30531 5.56215C2.48907 5.31833 2.67283 5.07451 2.82317 4.84695C2.88999 4.74943 3.00693 4.73317 3.10716 4.79819C3.12387 4.81444 3.14057 4.8307 3.15728 4.84695C3.19069 4.89572 3.20739 4.96073 3.19069 5.02575Z" fill="white"/>
</svg>
